
<svg width="100" height="100" viewBox="0 0 551.034 551.034" xmlns="http://www.w3.org/2000/svg">
  <linearGradient id="a" x1="275.517" x2="275.517" y1="0" y2="550.998" gradientUnits="userSpaceOnUse">
    <stop offset="0" stop-color="#fccc63"/>
    <stop offset="0.3" stop-color="#f66"/>
    <stop offset="0.6" stop-color="#b33dc6"/>
    <stop offset="1" stop-color="#3a8dde"/>
  </linearGradient>
  <path d="M386.878 0H164.155C73.547 0 0 73.547 0 164.155v222.723c0 90.608 73.547 164.155 164.155 164.155h222.723c90.608 0 164.155-73.547 164.155-164.155V164.155C551.034 73.547 477.486 0 386.878 0z" fill="url(#a)"/>
  <path d="M275.517 133.1c-78.58 0-142.417 63.837-142.417 142.417S196.937 417.933 275.517 417.933 417.933 354.096 417.933 275.517 354.096 133.1 275.517 133.1zm0 234.5c-50.789 0-92.083-41.294-92.083-92.083s41.294-92.083 92.083-92.083 92.083 41.294 92.083 92.083-41.294 92.083-92.083 92.083z" fill="#fff"/>
  <circle cx="418.31" cy="134.07" r="34.15" fill="#fff"/>
</svg>
